<svg width="750" height="58" viewBox="0 0 750 58" fill="none" xmlns="http://www.w3.org/2000/svg">
<path d="M26.2 58V6.88H0.6V0.399998H58.2V6.88H32.68V58H26.2ZM103.863 58V0.399998H110.423V58H103.863ZM161.293 58V0.399998H170.173L194.093 28.88L218.013 0.399998H226.893V58H220.413V7.76L194.093 39.04L167.773 7.76V58H161.293ZM275.671 58V0.399998H328.231V6.88H282.151V25.92H319.191V32.48H282.151V51.52H328.231V58H275.671Z" fill="#FCE3E3"/>
<path d="M386.361 58C383.695 58 381.428 57.0667 379.561 55.2C377.695 53.3333 376.761 51.0667 376.761 48.4V10C376.761 7.33333 377.695 5.06666 379.561 3.2C381.428 1.33333 383.695 0.399998 386.361 0.399998H434.201V6.88H386.361C385.508 6.88 384.761 7.2 384.121 7.84C383.535 8.42666 383.241 9.14666 383.241 10V48.4C383.241 49.2533 383.535 50 384.121 50.64C384.761 51.2267 385.508 51.52 386.361 51.52H434.201V58H386.361ZM482.623 58V0.399998H489.103V25.92H535.103V0.399998H541.663V58H535.103V32.48H489.103V58H482.623ZM590.749 58V0.399998H643.309V6.88H597.229V25.92H634.269V32.48H597.229V51.52H643.309V58H590.749ZM691.759 58V0.479997H739.759C742.426 0.479997 744.693 1.44 746.559 3.36C748.426 5.22667 749.359 7.46667 749.359 10.08V26.96C749.359 29.5733 748.426 31.84 746.559 33.76C744.693 35.6267 742.426 36.56 739.759 36.56H730.959L749.039 57.92V58H740.479L722.479 36.56L698.239 36.48V58H691.759ZM701.359 30H739.759C740.613 30 741.333 29.7067 741.919 29.12C742.506 28.5333 742.799 27.8133 742.799 26.96V10.08C742.799 9.22667 742.506 8.50666 741.919 7.92C741.333 7.28 740.613 6.96 739.759 6.96H701.359C700.506 6.96 699.759 7.28 699.119 7.92C698.533 8.50666 698.239 9.22667 698.239 10.08V26.96C698.239 27.8133 698.533 28.5333 699.119 29.12C699.759 29.7067 700.506 30 701.359 30Z" fill="black"/>
</svg>
