<svg width="301" height="24" viewBox="0 0 301 24" fill="none" xmlns="http://www.w3.org/2000/svg">
<path d="M10.88 24V3.552H0.64V0.959999H23.68V3.552H13.472V24H10.88ZM41.9453 24V0.959999H44.5693V24H41.9453ZM64.917 24V0.959999H68.469L78.037 12.352L87.605 0.959999H91.157V24H88.565V3.904L78.037 16.416L67.509 3.904V24H64.917ZM110.669 24V0.959999H131.693V3.552H113.261V11.168H128.077V13.792H113.261V21.408H131.693V24H110.669ZM154.945 24C153.878 24 152.971 23.6267 152.225 22.88C151.478 22.1333 151.105 21.2267 151.105 20.16V4.8C151.105 3.73333 151.478 2.82667 152.225 2.08C152.971 1.33333 153.878 0.959999 154.945 0.959999H174.081V3.552H154.945C154.603 3.552 154.305 3.68 154.049 3.936C153.814 4.17067 153.697 4.45867 153.697 4.8V20.16C153.697 20.5013 153.814 20.8 154.049 21.056C154.305 21.2907 154.603 21.408 154.945 21.408H174.081V24H154.945ZM193.449 24V0.959999H196.041V11.168H214.441V0.959999H217.065V24H214.441V13.792H196.041V24H193.449ZM236.7 24V0.959999H257.724V3.552H239.292V11.168H254.108V13.792H239.292V21.408H257.724V24H236.7ZM277.104 24V0.991999H296.304C297.37 0.991999 298.277 1.376 299.024 2.144C299.77 2.89067 300.144 3.78667 300.144 4.832V11.584C300.144 12.6293 299.77 13.536 299.024 14.304C298.277 15.0507 297.37 15.424 296.304 15.424H292.784L300.016 23.968V24H296.592L289.392 15.424L279.696 15.392V24H277.104ZM280.944 12.8H296.304C296.645 12.8 296.933 12.6827 297.168 12.448C297.402 12.2133 297.52 11.9253 297.52 11.584V4.832C297.52 4.49067 297.402 4.20267 297.168 3.968C296.933 3.712 296.645 3.584 296.304 3.584H280.944C280.602 3.584 280.304 3.712 280.048 3.968C279.813 4.20267 279.696 4.49067 279.696 4.832V11.584C279.696 11.9253 279.813 12.2133 280.048 12.448C280.304 12.6827 280.602 12.8 280.944 12.8Z" fill="white"/>
</svg>
