<svg width="750" height="58" viewBox="0 0 750 58" fill="none" xmlns="http://www.w3.org/2000/svg">
<path d="M25.08 58V9.04H0.6V0.399998H58.2V9.04H33.8V58H25.08ZM103.863 58V0.399998H112.503V58H103.863ZM161.293 58V0.399998H171.613L193.933 26.96L216.173 0.399998H226.573V58H217.853V12L193.933 40.48L169.933 12V58H161.293ZM275.671 58V0.399998H328.471V9.04H284.391V24.8H319.831V33.52H284.391V49.36H328.471V58H275.671ZM387.161 58C384.281 58 381.828 56.9867 379.801 54.96C377.775 52.9333 376.761 50.48 376.761 47.6V10.8C376.761 7.92 377.775 5.46666 379.801 3.44C381.828 1.41333 384.281 0.399998 387.161 0.399998H434.201V9.04H388.361C387.188 9.04 386.388 9.25333 385.961 9.68C385.588 10.0533 385.401 10.8267 385.401 12V46.4C385.401 47.5733 385.588 48.3733 385.961 48.8C386.388 49.1733 387.188 49.36 388.361 49.36H434.201V58H387.161ZM482.623 58V0.399998H491.263V24.8H532.863V0.399998H541.583V58H532.863V33.52H491.263V58H482.623ZM590.749 58V0.399998H643.549V9.04H599.469V24.8H634.909V33.52H599.469V49.36H643.549V58H590.749ZM691.759 58V0.479997H738.879C741.759 0.479997 744.213 1.52 746.239 3.6C748.319 5.62667 749.359 8.05333 749.359 10.88V27.04C749.359 29.8667 748.319 32.32 746.239 34.4C744.213 36.4267 741.759 37.44 738.879 37.44H733.119L749.119 56.4V58H739.039L721.839 37.44H700.399V58H691.759ZM703.359 28.72H737.679C738.906 28.72 739.706 28.5333 740.079 28.16C740.453 27.7867 740.639 27.0133 740.639 25.84V12.08C740.639 10.9067 740.453 10.1333 740.079 9.76C739.706 9.33333 738.906 9.12 737.679 9.12H703.359C702.186 9.12 701.386 9.33333 700.959 9.76C700.586 10.1333 700.399 10.9067 700.399 12.08V25.84C700.399 27.0133 700.586 27.7867 700.959 28.16C701.386 28.5333 702.186 28.72 703.359 28.72Z" fill="url(#paint0_linear)"/>
<defs>
<linearGradient id="paint0_linear" x1="-118" y1="6.00003" x2="849" y2="58" gradientUnits="userSpaceOnUse">
<stop stop-color="#60A5FA"/>
<stop offset="0.296875" stop-color="#FCA5A5"/>
<stop offset="0.677083" stop-color="#FCBCA5"/>
<stop offset="0.802083" stop-color="#FDE6A5"/>
<stop offset="0.989583" stop-color="white"/>
</linearGradient>
</defs>
</svg>
